<?xml version="1.0" standalone="no"?>
<!DOCTYPE svg PUBLIC "-//W3C//DTD SVG 20010904//EN"
 "http://www.w3.org/TR/2001/REC-SVG-20010904/DTD/svg10.dtd">
<svg version="1.0" xmlns="http://www.w3.org/2000/svg"
 width="37.000000pt" height="38.000000pt" viewBox="0 0 37.000000 38.000000"
 preserveAspectRatio="xMidYMid meet">
<metadata>
Created by potrace 1.10, written by Peter Selinger 2001-2011
</metadata>
<g transform="translate(0.000000,38.000000) scale(0.100000,-0.100000)"
fill="#059669" stroke="none">
<path d="M225 358 c-11 -13 -19 -26 -18 -29 1 -3 -11 -3 -27 -1 -75 11 -150
-54 -150 -130 0 -40 33 -111 68 -146 20 -20 55 -42 67 -42 15 0 105 95 105
111 0 10 4 21 10 24 6 3 10 21 10 39 0 31 2 32 38 32 33 -1 37 2 40 27 2 16
-1 34 -7 41 -6 8 -9 21 -5 30 3 9 -1 27 -10 41 -23 34 -92 36 -121 3z m70 -26
c5 -12 13 -22 17 -22 12 0 9 25 -4 38 -9 9 -9 12 0 12 6 0 16 -8 21 -18 12
-23 -5 -57 -23 -43 -7 6 -17 6 -26 1 -17 -10 -50 5 -50 23 0 19 22 38 40 35 8
-2 19 -13 25 -26z m-85 -37 c14 -8 41 -14 61 -15 24 0 39 -6 43 -16 9 -23 7
-34 -4 -34 -5 0 -10 9 -10 20 0 16 -7 20 -32 20 -29 0 -30 -1 -15 -18 21 -23
22 -84 3 -120 -8 -15 -33 -45 -55 -67 l-41 -39 -41 39 c-51 50 -69 84 -69 130
0 47 14 71 53 95 38 23 72 25 107 5z m140 -24 c0 -5 3 -16 6 -25 10 -26 -10
-18 -23 9 -9 20 -8 25 3 25 8 0 14 -4 14 -9z"/>
<path d="M250 325 c0 -8 7 -15 15 -15 8 0 15 7 15 15 0 8 -7 15 -15 15 -8 0
-15 -7 -15 -15z"/>
<path d="M107 260 c-36 -29 -42 -64 -17 -114 11 -24 31 -53 45 -66 l25 -23 25
23 c36 34 67 103 60 133 -5 18 -12 24 -23 20 -11 -5 -14 -2 -9 10 14 37 -64
50 -106 17z m81 -26 c30 -21 29 -59 -3 -80 -23 -15 -27 -15 -50 0 -32 21 -33
59 -3 80 12 9 25 16 28 16 3 0 16 -7 28 -16z m-13 -113 c7 -12 -12 -24 -25
-16 -11 7 -4 25 10 25 5 0 11 -4 15 -9z"/>
<path d="M138 208 c-7 -18 2 -38 16 -38 18 0 35 21 29 36 -6 17 -39 18 -45 2z"/>
</g>
</svg>
